<mxfile host="app.diagrams.net" modified="2020-12-27T12:57:39.783Z" agent="5.0 (Windows NT 10.0; Win64; x64) AppleWebKit/537.36 (KHTML, like Gecko) Chrome/87.0.4280.101 Safari/537.36" etag="1h8Cj4WW60zFf9ocr480" version="14.1.2" type="github">
  <diagram id="SxaMd5r4LtUXf_GsCfdb" name="Page-1">
    <mxGraphModel dx="1037" dy="1405" grid="1" gridSize="10" guides="1" tooltips="1" connect="1" arrows="1" fold="1" page="1" pageScale="1" pageWidth="850" pageHeight="1100" math="0" shadow="0">
      <root>
        <mxCell id="0" />
        <mxCell id="1" parent="0" />
        <mxCell id="5ohM6x6bCfaVz7RJlfUQ-1" value="Find a random word" style="rounded=1;whiteSpace=wrap;html=1;" vertex="1" parent="1">
          <mxGeometry x="280" y="120" width="190" height="60" as="geometry" />
        </mxCell>
        <mxCell id="5ohM6x6bCfaVz7RJlfUQ-2" value="Ask User for entering a letter" style="rounded=1;whiteSpace=wrap;html=1;" vertex="1" parent="1">
          <mxGeometry x="280" y="260" width="190" height="60" as="geometry" />
        </mxCell>
        <mxCell id="5ohM6x6bCfaVz7RJlfUQ-3" value="" style="endArrow=classic;html=1;exitX=0.5;exitY=1;exitDx=0;exitDy=0;entryX=0.5;entryY=0;entryDx=0;entryDy=0;" edge="1" parent="1" source="5ohM6x6bCfaVz7RJlfUQ-1" target="5ohM6x6bCfaVz7RJlfUQ-2">
          <mxGeometry width="50" height="50" relative="1" as="geometry">
            <mxPoint x="600" y="670" as="sourcePoint" />
            <mxPoint x="650" y="620" as="targetPoint" />
          </mxGeometry>
        </mxCell>
        <mxCell id="5ohM6x6bCfaVz7RJlfUQ-5" value="if present" style="rhombus;whiteSpace=wrap;html=1;" vertex="1" parent="1">
          <mxGeometry x="335" y="390" width="80" height="80" as="geometry" />
        </mxCell>
        <mxCell id="5ohM6x6bCfaVz7RJlfUQ-6" value="" style="endArrow=classic;html=1;exitX=0.5;exitY=1;exitDx=0;exitDy=0;entryX=0.5;entryY=0;entryDx=0;entryDy=0;" edge="1" parent="1" source="5ohM6x6bCfaVz7RJlfUQ-2" target="5ohM6x6bCfaVz7RJlfUQ-5">
          <mxGeometry width="50" height="50" relative="1" as="geometry">
            <mxPoint x="600" y="670" as="sourcePoint" />
            <mxPoint x="650" y="620" as="targetPoint" />
          </mxGeometry>
        </mxCell>
        <mxCell id="5ohM6x6bCfaVz7RJlfUQ-8" value="" style="endArrow=classic;html=1;" edge="1" parent="1">
          <mxGeometry width="50" height="50" relative="1" as="geometry">
            <mxPoint x="280" y="430" as="sourcePoint" />
            <mxPoint x="280" y="510" as="targetPoint" />
          </mxGeometry>
        </mxCell>
        <mxCell id="5ohM6x6bCfaVz7RJlfUQ-9" value="" style="endArrow=classic;html=1;" edge="1" parent="1">
          <mxGeometry width="50" height="50" relative="1" as="geometry">
            <mxPoint x="470" y="430" as="sourcePoint" />
            <mxPoint x="470" y="510" as="targetPoint" />
          </mxGeometry>
        </mxCell>
        <mxCell id="5ohM6x6bCfaVz7RJlfUQ-10" value="" style="endArrow=none;html=1;entryX=0;entryY=0.5;entryDx=0;entryDy=0;" edge="1" parent="1" target="5ohM6x6bCfaVz7RJlfUQ-5">
          <mxGeometry width="50" height="50" relative="1" as="geometry">
            <mxPoint x="280" y="430" as="sourcePoint" />
            <mxPoint x="650" y="620" as="targetPoint" />
          </mxGeometry>
        </mxCell>
        <mxCell id="5ohM6x6bCfaVz7RJlfUQ-11" value="" style="endArrow=none;html=1;entryX=0;entryY=0.5;entryDx=0;entryDy=0;" edge="1" parent="1">
          <mxGeometry width="50" height="50" relative="1" as="geometry">
            <mxPoint x="415" y="429.5" as="sourcePoint" />
            <mxPoint x="470" y="429.5" as="targetPoint" />
          </mxGeometry>
        </mxCell>
        <mxCell id="5ohM6x6bCfaVz7RJlfUQ-24" value="" style="edgeStyle=orthogonalEdgeStyle;rounded=0;orthogonalLoop=1;jettySize=auto;html=1;" edge="1" parent="1" source="5ohM6x6bCfaVz7RJlfUQ-12" target="5ohM6x6bCfaVz7RJlfUQ-23">
          <mxGeometry relative="1" as="geometry" />
        </mxCell>
        <mxCell id="5ohM6x6bCfaVz7RJlfUQ-12" value="Redraw with the letter filled" style="rounded=1;whiteSpace=wrap;html=1;" vertex="1" parent="1">
          <mxGeometry x="220" y="520" width="120" height="60" as="geometry" />
        </mxCell>
        <mxCell id="5ohM6x6bCfaVz7RJlfUQ-21" value="" style="edgeStyle=orthogonalEdgeStyle;rounded=0;orthogonalLoop=1;jettySize=auto;html=1;" edge="1" parent="1" source="5ohM6x6bCfaVz7RJlfUQ-13" target="5ohM6x6bCfaVz7RJlfUQ-20">
          <mxGeometry relative="1" as="geometry" />
        </mxCell>
        <mxCell id="5ohM6x6bCfaVz7RJlfUQ-13" value="&lt;span&gt;Add a character to hang man&lt;/span&gt;" style="rounded=1;whiteSpace=wrap;html=1;" vertex="1" parent="1">
          <mxGeometry x="410" y="520" width="120" height="60" as="geometry" />
        </mxCell>
        <mxCell id="5ohM6x6bCfaVz7RJlfUQ-15" value="" style="endArrow=classic;html=1;entryX=0;entryY=0.5;entryDx=0;entryDy=0;exitX=0;exitY=0.5;exitDx=0;exitDy=0;" edge="1" parent="1" source="5ohM6x6bCfaVz7RJlfUQ-23" target="5ohM6x6bCfaVz7RJlfUQ-2">
          <mxGeometry width="50" height="50" relative="1" as="geometry">
            <mxPoint x="120" y="560" as="sourcePoint" />
            <mxPoint x="330" y="580" as="targetPoint" />
            <Array as="points">
              <mxPoint x="120" y="698" />
              <mxPoint x="120" y="290" />
            </Array>
          </mxGeometry>
        </mxCell>
        <mxCell id="5ohM6x6bCfaVz7RJlfUQ-16" value="" style="endArrow=classic;html=1;entryX=1;entryY=0.5;entryDx=0;entryDy=0;exitX=1;exitY=0.5;exitDx=0;exitDy=0;" edge="1" parent="1" source="5ohM6x6bCfaVz7RJlfUQ-20" target="5ohM6x6bCfaVz7RJlfUQ-2">
          <mxGeometry width="50" height="50" relative="1" as="geometry">
            <mxPoint x="530" y="660" as="sourcePoint" />
            <mxPoint x="470" y="920" as="targetPoint" />
            <Array as="points">
              <mxPoint x="610" y="705" />
              <mxPoint x="610" y="290" />
            </Array>
          </mxGeometry>
        </mxCell>
        <mxCell id="5ohM6x6bCfaVz7RJlfUQ-20" value="&#xa;&#xa;&lt;span style=&quot;color: rgb(0, 0, 0); font-family: helvetica; font-size: 12px; font-style: normal; font-weight: 400; letter-spacing: normal; text-align: center; text-indent: 0px; text-transform: none; word-spacing: 0px; background-color: rgb(248, 249, 250); display: inline; float: none;&quot;&gt;If total pieces &amp;lt; 7&lt;/span&gt;&#xa;&#xa;" style="rhombus;whiteSpace=wrap;html=1;rounded=1;" vertex="1" parent="1">
          <mxGeometry x="415" y="650" width="110" height="110" as="geometry" />
        </mxCell>
        <mxCell id="5ohM6x6bCfaVz7RJlfUQ-26" value="" style="edgeStyle=orthogonalEdgeStyle;rounded=0;orthogonalLoop=1;jettySize=auto;html=1;" edge="1" parent="1" source="5ohM6x6bCfaVz7RJlfUQ-23" target="5ohM6x6bCfaVz7RJlfUQ-25">
          <mxGeometry relative="1" as="geometry" />
        </mxCell>
        <mxCell id="5ohM6x6bCfaVz7RJlfUQ-23" value="all letters found ?" style="rhombus;whiteSpace=wrap;html=1;rounded=1;" vertex="1" parent="1">
          <mxGeometry x="225" y="650" width="110" height="95" as="geometry" />
        </mxCell>
        <mxCell id="5ohM6x6bCfaVz7RJlfUQ-25" value="End" style="whiteSpace=wrap;html=1;rounded=1;" vertex="1" parent="1">
          <mxGeometry x="315" y="790" width="120" height="60" as="geometry" />
        </mxCell>
        <mxCell id="5ohM6x6bCfaVz7RJlfUQ-29" value="" style="edgeStyle=segmentEdgeStyle;endArrow=classic;html=1;exitX=0.5;exitY=1;exitDx=0;exitDy=0;entryX=0.5;entryY=0;entryDx=0;entryDy=0;" edge="1" parent="1" source="5ohM6x6bCfaVz7RJlfUQ-20" target="5ohM6x6bCfaVz7RJlfUQ-25">
          <mxGeometry width="50" height="50" relative="1" as="geometry">
            <mxPoint x="475" y="830" as="sourcePoint" />
            <mxPoint x="525" y="780" as="targetPoint" />
          </mxGeometry>
        </mxCell>
      </root>
    </mxGraphModel>
  </diagram>
</mxfile>
